<?xml version="1.0" encoding="utf-8"?>
<!-- Generator: Adobe Illustrator 22.0.1, SVG Export Plug-In . SVG Version: 6.00 Build 0)  -->
<svg version="1.1" id="_x32_" xmlns="http://www.w3.org/2000/svg" xmlns:xlink="http://www.w3.org/1999/xlink" x="0px" y="0px"
	 viewBox="0 0 1008.5 324" style="enable-background:new 0 0 1008.5 324;" xml:space="preserve">
<style type="text/css">
	.st0{fill:#FFFFFF;}
</style>
<g>
	<path class="st0" d="M214.3,42.4H53c-9.2,0-16.7,10.2-16.7,22.8v66.6H37h10.3h27.5h13.5c-6.6,0-12-5.4-12-12V70.9
		c0-6.6,5.4-12,12-12H179c6.6,0,12,5.4,12,12v48.9c0,6.6-5.4,12-12,12h13.5h32.7h5.1h0.7V65.2C231,52.6,223.6,42.4,214.3,42.4z"/>
	<polygon class="st0" points="243.6,141.7 230.3,141.7 37,141.7 29.7,141.7 19.3,141.7 19.3,281.6 37,281.6 37,254.6 230.3,254.6 
		230.3,281.6 248,281.6 248,254.6 248,141.7 	"/>
</g>
<g>
	<path class="st0" d="M458.8,42.4H297.5c-9.2,0-16.7,10.2-16.7,22.8v66.6h0.7h10.3h27.5h13.5c-6.6,0-12-5.4-12-12V70.9
		c0-6.6,5.4-12,12-12h90.7c6.6,0,12,5.4,12,12v48.9c0,6.6-5.4,12-12,12H437h32.7h5.1h0.7V65.2C475.5,52.6,468,42.4,458.8,42.4z"/>
	<polygon class="st0" points="488.1,141.7 474.8,141.7 281.5,141.7 274.1,141.7 263.8,141.7 263.8,281.6 281.5,281.6 281.5,254.6 
		474.8,254.6 474.8,281.6 492.5,281.6 492.5,254.6 492.5,141.7 	"/>
</g>
<g>
	<path class="st0" d="M703.3,42.4H542c-9.2,0-16.7,10.2-16.7,22.8v66.6h0.7h10.3h27.5h13.5c-6.6,0-12-5.4-12-12V70.9
		c0-6.6,5.4-12,12-12H668c6.6,0,12,5.4,12,12v48.9c0,6.6-5.4,12-12,12h13.5h32.7h5.1h0.7V65.2C720,52.6,712.5,42.4,703.3,42.4z"/>
	<polygon class="st0" points="732.6,141.7 719.3,141.7 526,141.7 518.6,141.7 508.3,141.7 508.3,281.6 526,281.6 526,254.6 
		719.3,254.6 719.3,281.6 737,281.6 737,254.6 737,141.7 	"/>
</g>
<g>
	<path class="st0" d="M947.8,42.4H786.5c-9.2,0-16.7,10.2-16.7,22.8v66.6h0.7h10.3h27.5h13.5c-6.6,0-12-5.4-12-12V70.9
		c0-6.6,5.4-12,12-12h90.7c6.6,0,12,5.4,12,12v48.9c0,6.6-5.4,12-12,12H926h32.7h5.1h0.7V65.2C964.5,52.6,957,42.4,947.8,42.4z"/>
	<polygon class="st0" points="977,141.7 963.8,141.7 770.5,141.7 763.1,141.7 752.8,141.7 752.8,281.6 770.5,281.6 770.5,254.6 
		963.8,254.6 963.8,281.6 981.5,281.6 981.5,254.6 981.5,141.7 	"/>
</g>
</svg>
