<?xml version="1.0" encoding="utf-8"?>
<!-- Generator: Adobe Illustrator 22.0.1, SVG Export Plug-In . SVG Version: 6.00 Build 0)  -->
<svg version="1.1" id="_x32_" xmlns="http://www.w3.org/2000/svg" xmlns:xlink="http://www.w3.org/1999/xlink" x="0px" y="0px"
	 viewBox="0 0 713 324" style="enable-background:new 0 0 713 324;" xml:space="preserve">
<style type="text/css">
	.st0{fill:#FFFFFF;}
</style>
<g>
	<path class="st0" d="M97.5,142.5c-2.7-0.7-5.1-2.3-7.1-4.5l-6.8-7.8c-5.8-6.7-5.8-17.4,0-24.1l6.8-7.8c2.8-3.2,6.6-5,10.5-5h46
		c3.9,0,7.7,1.8,10.5,5l6.8,7.8c5.8,6.7,5.8,17.4,0,24.1l-6.8,7.8c-2,2.3-4.4,3.8-7.1,4.5h65c-2.7-0.7-5.1-2.3-7.1-4.5l-6.8-7.8
		c-5.8-6.7-5.8-17.4,0-24.1l6.8-7.8c2.8-3.2,6.6-5,10.5-5h46c3.9,0,7.7,1.8,10.5,5l6.8,7.8c5.8,6.7,5.8,17.4,0,24.1l-6.8,7.8
		c-2,2.3-4.4,3.8-7.1,4.5H323h1.1V61.1c0-15.4-10.9-27.8-24.3-27.8h-234c-13.4,0-24.3,12.5-24.3,27.8v81.4h1.1H97.5z"/>
	<polygon class="st0" points="342.3,152.3 323,152.3 42.7,152.3 32,152.3 17,152.3 17,292.2 42.7,292.2 42.7,265.2 323,265.2 
		323,292.2 348.7,292.2 348.7,265.2 348.7,152.3 	"/>
</g>
<g>
	<path class="st0" d="M442.8,142.5c-2.7-0.7-5.1-2.3-7.1-4.5l-6.8-7.8c-5.8-6.7-5.8-17.4,0-24.1l6.8-7.8c2.8-3.2,6.6-5,10.5-5h46
		c3.9,0,7.7,1.8,10.5,5l6.8,7.8c5.8,6.7,5.8,17.4,0,24.1l-6.8,7.8c-2,2.3-4.4,3.8-7.1,4.5h65c-2.7-0.7-5.1-2.3-7.1-4.5l-6.8-7.8
		c-5.8-6.7-5.8-17.4,0-24.1l6.8-7.8c2.8-3.2,6.6-5,10.5-5h46c3.9,0,7.7,1.8,10.5,5l6.8,7.8c5.8,6.7,5.8,17.4,0,24.1l-6.8,7.8
		c-2,2.3-4.4,3.8-7.1,4.5h54.8h1.1V61.1c0-15.4-10.9-27.8-24.3-27.8h-234c-13.4,0-24.3,12.5-24.3,27.8v81.4h1.1H442.8z"/>
	<polygon class="st0" points="687.6,152.3 668.3,152.3 388,152.3 377.3,152.3 362.3,152.3 362.3,292.2 388,292.2 388,265.2 
		668.3,265.2 668.3,292.2 694,292.2 694,265.2 694,152.3 	"/>
</g>
</svg>
