<?xml version="1.0" encoding="utf-8"?>
<!-- Generator: Adobe Illustrator 22.0.1, SVG Export Plug-In . SVG Version: 6.00 Build 0)  -->
<svg version="1.1" id="_x32_" xmlns="http://www.w3.org/2000/svg" xmlns:xlink="http://www.w3.org/1999/xlink" x="0px" y="0px"
	 viewBox="0 0 512 512" style="enable-background:new 0 0 512 512;" xml:space="preserve">
<style type="text/css">
	.st0{fill:#FFFFFF;}
</style>
<g>
	<path class="st0" d="M119.7,129.3V97.9c0-13.5,10.9-24.5,24.4-24.5h78.2c13.5,0,24.4,11,24.4,24.4v31.4c0,4.1-1.1,7.9-2.9,11.2h24
		c-1.8-3.4-2.9-7.2-2.9-11.2V97.9c0-13.5,10.9-24.5,24.5-24.5h78.2c13.5,0,24.4,11,24.4,24.4v31.4c0,4.1-1.1,7.9-2.9,11.2h53.2V55.6
		c0-17.4-14.1-31.5-31.5-31.5H100.9c-17.4,0-31.5,14.1-31.5,31.5v84.9h53.2C120.8,137.2,119.7,133.4,119.7,129.3z"/>
	<polygon class="st0" points="442.6,155.1 69.4,155.1 3.7,324.4 508.3,324.4 	"/>
	<path class="st0" d="M0,336.6v54.2c0,18.6,15.1,33.8,33.8,33.8h444.5c18.6,0,33.8-15.1,33.8-33.8v-54.2H0z"/>
	<polygon class="st0" points="70.1,487.9 130.6,487.9 136.1,440.5 64.6,440.5 	"/>
	<polygon class="st0" points="381.4,487.9 441.9,487.9 447.4,440.5 375.9,440.5 	"/>
</g>
</svg>
